# AST/ASF file generated using VICON BodyLanguage
# -----------------------------------------------
:version 1.10
:name VICON
:units
  mass 1.0
  length 0.45
  angle deg
:documentation
   .ast/.asf automatically generated from VICON data using
   VICON BodyBuilder and BodyLanguage model FoxedUp or BRILLIANT.MOD
:root
   order TX TY TZ RX RY RZ
   axis XYZ
   position 0 0 0  
   orientation 0 0 0 
:bonedata
  begin
     id 1 
     name lhipjoint
     direction 0.522423 -0.726805 0.445902 
     length 2.25074 
     axis 0 0 0  XYZ
  end
  begin
     id 2 
     name lfemur
     direction 0.34202 -0.939693 0  
     length 6.54609  
     axis 0 0 20  XYZ
    dof rx ry rz
    limits (-160.0 20.0)
           (-70.0 70.0)
           (-60.0 70.0)
  end
  begin
     id 3 
     name ltibia
     direction 0.34202 -0.939693 0   
     length 7.7528   
     axis 0 0 20   XYZ
    dof rx
    limits (-10.0 170.0)
  end
  begin
     id 4 
     name lfoot
     direction 0.143696 -0.394801 0.90746   
     length 1.73269   
     axis -90 7.62852e-016 20   XYZ
    dof rx rz
    limits (-45.0 90.0)
           (-70.0 20.0)
  end
  begin
     id 5 
     name ltoes
     direction 1.53633e-011 -4.21912e-011 1   
     length 0.858383   
     axis -90 7.62852e-016 20   XYZ
    dof rx
    limits (-90.0 20.0)
  end
  begin
     id 6 
     name rhipjoint
     direction -0.515943 -0.73016 0.447961   
     length 2.2404  
     axis 0 0 0  XYZ 
  end
  begin
     id 7 
     name rfemur
     direction -0.34202 -0.939693 0   
     length 6.84377   
     axis 0 0 -20   XYZ
    dof rx ry rz
    limits (-160.0 20.0)
           (-70.0 70.0)
           (-70.0 60.0)
  end
  begin
     id 8 
     name rtibia
     direction -0.34202 -0.939693 0   
     length 7.57596   
     axis 0 0 -20   XYZ
    dof rx
    limits (-10.0 170.0)
 end
 begin
     id 9 
     name rfoot
     direction -0.0999372 -0.274575 0.956358   
     length 1.78783  
     axis -90 -7.62852e-016 -20   XYZ
    dof rx rz
    limits (-45.0 90.0)
           (-20.0 70.0)
  end
  begin
     id 10 
     name rtoes
     direction -1.53535e-011 -4.21895e-011 1   
     length 0.898614   
     axis -90 -7.62852e-016 -20   XYZ
    dof rx
    limits (-90.0 20.0)
  end
  begin
     id 11 
     name lowerback
     direction -0.011775 0.996164 -0.0867116   
     length 1.91499   
     axis 0 0 0   XYZ
    dof rx ry rz
    limits (-20.0 45.0)
           (-30.0 30.0)
           (-30.0 30.0)
  end
  begin
     id 12 
     name upperback
     direction -0.00189771 0.999673 -0.0254833   
     length 1.92213   
     axis 0 0 0   XYZ
    dof rx ry rz
    limits (-20.0 45.0)
           (-30.0 30.0)
           (-30.0 30.0)
  end
  begin
     id 13 
     name thorax
     direction 0.00335995 0.999878 0.0152401   
     length 1.93138   
     axis 0 0 0   XYZ
    dof rx ry rz
    limits (-20.0 45.0)
           (-30.0 30.0)
           (-30.0 30.0)
  end
  begin
     id 14 
     name lowerneck
     direction 0.00233191 0.998509 0.0545404   
     length 1.59408   
     axis 0 0 0   XYZ
    dof rx ry rz
    limits (-20.0 45.0)
           (-30.0 30.0)
           (-30.0 30.0)
  end
  begin
     id 15 
     name upperneck
     direction 0.07881 0.9956 -0.0506934   
     length 1.59344   
     axis 0 0 0   XYZ
    dof rx ry rz
    limits (-20.0 45.0)
           (-30.0 30.0)
           (-30.0 30.0)
  end
  begin
     id 16
     name head
     direction 0.0261681 0.999378 -0.0236299  
     length 1.60935  
     axis 0 0 0   XYZ
    dof rx ry rz
    limits (-20.0 45.0)
           (-30.0 30.0)
           (-30.0 30.0)
  end
  begin
     id 17 
     name lclavicle
     direction 0.96643 0.252035 0.0499195  
     length 3.82153  
     axis 0 0 0   XYZ
    dof ry rz
    limits (-20.0 10.0)
           (0.0 20.0)
  end
  begin
     id 18 
     name lhumerus
     direction 1 -4.48967e-011 -2.01614e-018   
     length 4.87796   
     axis 180 -30 -90   XYZ
    dof rx ry rz
    limits (-60.0 90.0)
           (-90.0 90.0)
           (-90.0 90.0)
  end
  begin
     id 19
     name lradius
     direction 1 -4.48958e-011 3.1409e-027   
     length 3.23169   
     axis 180 -30 -90   XYZ
    dof rx
    limits (-10.0 170.0)
  end
  begin
     id 20
     name lwrist
     direction 1 -4.48924e-011 1.0365e-027   
     length 1.61584   
     axis -2.56395e-016 90 90   XYZ
    dof ry
    limits (-180.0 0.0)
 end
  begin
     id 21 
     name lhand
     direction 1 -4.49055e-011 2.09488e-027   
     length 0.731324   
     axis -1.32723e-015 90 90   XYZ
    dof rx rz
    limits (-90.0 90.0)
           (-45.0 45.0)
  end
  begin
     id 22 
     name lfingers
     direction 1 -4.48935e-011 4.14981e-027   
     length 0.589612   
     axis -2.6545e-015 90 90   XYZ
    dof rx
    limits (0.0 90.0)
  end
  begin
     id 23
     name lthumb
     direction 0.707107 -6.35097e-011 0.707107   
     length 0.846569   
     axis -90 45 5.05613e-014   XYZ
    dof rx rz
    limits (-45.0 45.0)
           (-45.0 45.0)
  end
  begin
     id 24 
     name rclavicle
     direction -0.979337 0.201016 0.0221522   
     length 3.73827  
     axis 0 0 0   XYZ 
    dof ry rz
    limits (-10.0 20.0)
           (-20.0 0.0)
  end
  begin
     id 25 
     name rhumerus
     direction -1 -4.48971e-011 1.65907e-027  
     length 4.9143   
     axis 180 30 90   XYZ
    dof rx ry rz
    limits (-90.0 60.0)
           (-90.0 90.0)
           (-90.0 90.0)
  end
  begin
     id 26 
     name rradius
     direction -1 -4.4894e-011 2.17871e-028   
     length 3.29093   
     axis 180 30 90   XYZ
    dof rx
    limits (-10.0 170.0)
  end
  begin
     id 27 
     name rwrist
     direction -1 -4.48971e-011 1.04038e-027   
     length 1.64546   
     axis -2.56395e-016 -90 -90   XYZ
    dof ry
    limits (-180.0 0.0)
  end
  begin
     id 28
     name rhand
     direction -1 -4.49017e-011 2.08843e-027   
     length 0.54512   
     axis -1.32723e-015 -90 -90   XYZ
    dof rx rz
    limits (-90.0 90.0)
           (-45.0 45.0)
  end
  begin
     id 29
     name rfingers
     direction -1 -4.48918e-011 4.1439e-027   
     length 0.43949   
     axis -2.6545e-015 -90 -90   XYZ
    dof rx
    limits (0.0 90.0)
  end
  begin
     id 30
     name rthumb
     direction -0.707107 -6.35065e-011 0.707107   
     length 0.631022   
     axis -90 -45 -5.05613e-014   XYZ
    dof rx rz
    limits (-45.0 45.0)
           (-45.0 45.0)
  end
:hierarchy
  begin
    root lhipjoint rhipjoint lowerback
    lhipjoint lfemur
    lfemur ltibia
    ltibia lfoot
    lfoot ltoes
    rhipjoint rfemur
    rfemur rtibia
    rtibia rfoot
    rfoot rtoes
    lowerback upperback
    upperback thorax
    thorax lowerneck lclavicle rclavicle
    lowerneck upperneck
    upperneck head
    lclavicle lhumerus
    lhumerus lradius
    lradius lwrist
    lwrist lhand lthumb
    lhand lfingers
    rclavicle rhumerus
    rhumerus rradius
    rradius rwrist
    rwrist rhand rthumb
    rhand rfingers
  end

#!OML:ASF H:\BreakDance\Project 1\Capture day 1\Session 1\Male.ASF
:FULLY-SPECIFIED
:DEGREES
1
root 12.3907 16.3241 1.46566 -146.421 -88.7077 145.315
lowerback -9.49043 1.22839 0.746378
upperback 3.40954 1.74609 -2.653
thorax 9.08182 0.966879 -2.95163
lowerneck -1.44091 -1.0993 3.49848
upperneck 20.3442 -2.94275 2.85542
head 6.42051 -1.20376 0.12259
rclavicle 1.67476e-014 -2.62396e-014
rhumerus -27.0973 5.10645 -90.4747
rradius 51.54
rwrist 21.002
rhand -27.2042 -35.5934
rfingers 7.12502
rthumb -0.617342 -65.5722
lclavicle 1.67476e-014 -2.62396e-014
lhumerus -24.7886 -10.9906 83.7552
lradius 50.9922
lwrist -13.58
lhand -23.7035 -20.4786
lfingers 7.12502
lthumb 2.76371 9.4832
rfemur -14.7046 3.23522 12.2851
rtibia 44.9818
rfoot -34.6689 -13.9632
rtoes 10.0659
lfemur -9.42004 2.73504 -11.5701
ltibia 32.2508
lfoot -25.2815 16.9686
ltoes -30.1531
2
root 12.3927 16.2913 1.46612 -152.573 -88.7402 151.431
lowerback -9.4193 1.23561 0.896874
upperback 3.36948 1.73503 -2.64376
thorax 9.00045 0.969286 -3.02939
lowerneck -0.986463 -1.13698 3.25114
upperneck 20.0239 -2.97967 3.09023
head 6.24522 -1.23577 0.242835
rclavicle 9.54166e-015 1.59028e-015
rhumerus -27.2295 5.13287 -90.5642
rradius 51.5648
rwrist 21.1544
rhand -27.1473 -35.908
rfingers 7.12502
rthumb -0.562389 -65.887
lclavicle 9.54166e-015 1.59028e-015
lhumerus -24.8754 -10.9439 83.7136
lradius 50.9795
lwrist -13.4915
lhand -23.1648 -23.0734
lfingers 7.12502
lthumb 3.28397 6.88107
rfemur -14.3775 3.461 12.4272
rtibia 44.4307
rfoot -34.6732 -13.7373
rtoes 11.5492
lfemur -9.92701 2.74219 -11.4025
ltibia 33.2205
lfoot -25.5079 16.8722
ltoes -30.66
3
root 12.3965 16.2585 1.46636 -153.609 -88.7337 152.485
lowerback -9.43136 1.23345 0.916194
upperback 3.35281 1.72859 -2.629
thorax 8.989 0.966699 -3.0254
lowerneck -0.859635 -1.13718 3.20404
upperneck 19.9467 -2.96697 3.09436
head 6.19903 -1.23604 0.254417
rclavicle 1.78906e-014 -1.03368e-014
rhumerus -27.2557 5.11871 -90.559
rradius 51.5499
rwrist 21.1582
rhand -27.0922 -35.9002
rfingers 7.12502
rthumb -0.509104 -65.8794
lclavicle 1.78906e-014 -1.03368e-014
lhumerus -24.9188 -10.8858 83.7465
lradius 50.9778
lwrist -13.5407
lhand -22.667 -25.5577
lfingers 7.12502
lthumb 3.76471 4.38877
rfemur -14.1298 3.63459 12.4284
rtibia 43.9205
rfoot -34.6588 -13.4018
rtoes 13.2148
lfemur -10.4445 2.7722 -11.3622
ltibia 34.1331
lfoot -25.9426 16.7968
ltoes -30.4686
4
root 12.4015 16.2258 1.4659 -152.98 -88.7243 151.838
lowerback -9.38908 1.22472 0.862175
upperback 3.37668 1.72299 -2.61965
thorax 8.98771 0.960654 -2.98629
lowerneck -1.08797 -1.11016 3.26898
upperneck 20.1036 -2.94122 3.02497
head 6.28685 -1.21736 0.219849
rclavicle -1.61513e-015 7.15625e-015
rhumerus -27.1952 5.14146 -90.5506
rradius 51.5174
rwrist 21.1386
rhand -27.0314 -34.9845
rfingers 7.12502
rthumb -0.450385 -64.9638
lclavicle -1.61513e-015 7.15625e-015
lhumerus -24.881 -10.8327 83.7545
lradius 51.0463
lwrist -13.6643
lhand -21.6195 -30.3761
lfingers 7.12502
lthumb 4.77622 -0.449981
rfemur -13.7985 3.84686 12.4044
rtibia 43.3191
rfoot -34.5599 -13.0453
rtoes 15.8026
lfemur -10.9825 2.76569 -11.3581
ltibia 35.1736
lfoot -26.5052 16.7323
ltoes -30.4785
5
root 12.406 16.1939 1.46576 -153.745 -88.7118 152.6
lowerback -9.37401 1.22385 0.858105
upperback 3.38609 1.72173 -2.61098
thorax 8.98858 0.959621 -2.97511
lowerneck -1.17094 -1.09619 3.28296
upperneck 20.1521 -2.92367 2.99559
head 6.31607 -1.20759 0.208096
rclavicle -5.31749e-015 2.78299e-014
rhumerus -27.1753 5.14383 -90.5493
rradius 51.5074
rwrist 21.1715
rhand -26.9884 -34.6003
rfingers 7.12502
rthumb -0.408884 -64.5797
lclavicle -5.31749e-015 2.78299e-014
lhumerus -24.8537 -10.7872 83.7549
lradius 51.0693
lwrist -13.7658
lhand -21.7063 -30.3586
lfingers 7.12502
lthumb 4.69242 -0.43061
rfemur -13.5173 4.06063 12.404
rtibia 42.8102
rfoot -34.5667 -12.5653
rtoes 18.5751
lfemur -11.4425 2.76886 -11.3268
ltibia 36.0224
lfoot -26.9065 16.6818
ltoes -30.5194
6
root 12.4152 16.1304 1.46519 -153.936 -88.6931 152.792
lowerback -9.36766 1.22418 0.841804
upperback 3.39934 1.72404 -2.60694
thorax 8.99875 0.959823 -2.96128
lowerneck -1.31168 -1.07611 3.33055
upperneck 20.2411 -2.90037 2.93973
head 6.36762 -1.19292 0.181851
rclavicle -9.69075e-016 -1.59028e-014
rhumerus -27.1462 5.13335 -90.5424
rradius 51.5025
rwrist 21.2061
rhand -26.9537 -34.2405
rfingers 7.12502
rthumb -0.375383 -64.2199
lclavicle -9.69075e-016 -1.59028e-014
lhumerus -24.8097 -10.7474 83.7519
lradius 51.0871
lwrist -13.8865
lhand -21.7594 -30.3563
lfingers 7.12502
lthumb 4.64107 -0.427119
rfemur -13.1873 4.4617 12.3784
rtibia 42.3177
rfoot -35.0104 -11.1762
rtoes 24.3893
lfemur -11.92 2.76959 -11.2885
ltibia 36.7953
lfoot -27.2213 16.6481
ltoes -30.5533
7
root 12.4156 16.1308 1.46546 -154.122 -88.6721 152.98
lowerback -9.36349 1.22678 0.829384
upperback 3.41086 1.7292 -2.60723
thorax 9.00879 0.961742 -2.95376
lowerneck -1.4539 -1.05494 3.38771
upperneck 20.3331 -2.87674 2.88349
head 6.42043 -1.17746 0.153875
rclavicle 1.60022e-014 -2.94201e-014
rhumerus -27.1225 5.11742 -90.5392
rradius 51.5042
rwrist 21.2434
rhand -26.9151 -33.9774
rfingers 7.12502
rthumb -0.338065 -63.9568
lclavicle 1.60022e-014 -2.94201e-014
lhumerus -24.7656 -10.7136 83.7427
lradius 51.0976
lwrist -13.9964
lhand -21.8375 -30.3888
lfingers 7.12502
lthumb 4.56567 -0.457986
rfemur -13.0807 4.42043 12.3722
rtibia 42.0551
rfoot -34.7857 -11.2929
rtoes 24.8509
lfemur -12.134 2.77266 -11.2972
ltibia 37.2335
lfoot -27.4618 16.6476
ltoes -30.6093
8
root 12.4163 16.132 1.46556 -154.624 -88.6538 153.484
lowerback -9.36022 1.23039 0.829127
upperback 3.41966 1.73424 -2.60869
thorax 9.01684 0.964324 -2.95439
lowerneck -1.56897 -1.03615 3.43969
upperneck 20.4074 -2.85577 2.83727
head 6.46313 -1.16374 0.130163
rclavicle 1.2424e-016 1.59028e-015
rhumerus -27.1068 5.10391 -90.5415
rradius 51.5117
rwrist 21.2721
rhand -26.8636 -33.8381
rfingers 7.12502
rthumb -0.288386 -63.8177
lclavicle 1.2424e-016 1.59028e-015
lhumerus -24.728 -10.6855 83.7284
lradius 51.1012
lwrist -14.0766
lhand -21.8999 -30.4178
lfingers 7.12502
lthumb 4.50539 -0.485694
rfemur -12.9957 4.4429 12.3752
rtibia 41.878
rfoot -34.7283 -11.2807
rtoes 25.6285
lfemur -12.2814 2.77753 -11.2962
ltibia 37.5305
lfoot -27.6166 16.6556
ltoes -30.6628
9
root 12.4173 16.1296 1.46602 -155.522 -88.6415 154.386
lowerback -9.34975 1.23447 0.843042
upperback 3.42268 1.73802 -2.61041
thorax 9.01478 0.967034 -2.96358
lowerneck -1.64268 -1.02121 3.48023
upperneck 20.4556 -2.83911 2.80761
head 6.49071 -1.1529 0.113935
rclavicle -2.78299e-015 3.97569e-015
rhumerus -27.1018 5.09507 -90.5505
rradius 51.5206
rwrist 21.2834
rhand -26.8008 -33.7923
rfingers 7.12502
rthumb -0.227677 -63.772
lclavicle -2.78299e-015 3.97569e-015
lhumerus -24.7043 -10.6634 83.7109
lradius 51.102
lwrist -14.1154
lhand -21.9382 -30.4463
lfingers 7.12502
lthumb 4.4684 -0.513438
rfemur -13.0145 4.33958 12.3971
rtibia 41.868
rfoot -34.6391 -11.4399
rtoes 25.3692
lfemur -12.3091 2.78392 -11.2807
ltibia 37.5688
lfoot -27.6228 16.6756
ltoes -30.68
10
root 12.4184 16.1275 1.46631 -156.689 -88.6353 155.554
lowerback -9.33263 1.23644 0.859961
upperback 3.42184 1.73823 -2.60803
thorax 9.00432 0.967978 -2.97076
lowerneck -1.67139 -1.01163 3.50135
upperneck 20.4732 -2.82738 2.79366
head 6.50099 -1.14596 0.106278
rclavicle -1.35919e-014 3.18055e-014
rhumerus -27.1049 5.10191 -90.5611
rradius 51.5299
rwrist 21.2737
rhand -26.7276 -33.7868
rfingers 7.12502
rthumb -0.157007 -63.7665
lclavicle -1.35919e-014 3.18055e-014
lhumerus -24.6939 -10.64 83.6953
lradius 51.1042
lwrist -14.113
lhand -21.9508 -30.4687
lfingers 7.12502
lthumb 4.45629 -0.53562
rfemur -13.0287 4.26378 12.4319
rtibia 41.8524
rfoot -34.5789 -11.6019
rtoes 24.959
lfemur -12.3402 2.79068 -11.2544
ltibia 37.6171
lfoot -27.6323 16.6843
ltoes -30.6769
11
root 12.4195 16.125 1.46646 -157.955 -88.631 156.822
lowerback -9.31684 1.23547 0.869471
upperback 3.42121 1.73499 -2.59904
thorax 8.99414 0.966625 -2.96722
lowerneck -1.66145 -1.00568 3.50295
upperneck 20.4561 -2.81668 2.78987
head 6.4937 -1.14126 0.105638
rclavicle 4.74598e-015 -1.51076e-014
rhumerus -27.1112 5.1244 -90.5665
rradius 51.543
rwrist 21.253
rhand -26.6487 -33.8
rfingers 7.12502
rthumb -0.0807703 -63.7797
lclavicle 4.74598e-015 -1.51076e-014
lhumerus -24.6859 -10.6092 83.6839
lradius 51.1063
lwrist -14.0957
lhand -21.9494 -30.4877
lfingers 7.12502
lthumb 4.45761 -0.554594
rfemur -13.0453 4.18195 12.4727
rtibia 41.8301
rfoot -34.4707 -11.8085
rtoes 24.248
lfemur -12.3773 2.79854 -11.223
ltibia 37.679
lfoot -27.6489 16.6821
ltoes -30.6778
12
root 12.4204 16.1225 1.46648 -159.09 -88.625 157.961
lowerback -9.3083 1.23313 0.867453
upperback 3.42145 1.73113 -2.58569
thorax 8.98856 0.964217 -2.95251
lowerneck -1.62539 -1.00032 3.49361
upperneck 20.4114 -2.80354 2.79139
head 6.47314 -1.13648 0.109085
rclavicle -9.19379e-016 9.54166e-015
rhumerus -27.1191 5.15541 -90.564
rradius 51.5594
rwrist 21.2279
rhand -26.5828 -33.827
rfingers 7.12502
rthumb -0.017095 -63.8067
lclavicle -9.19379e-016 9.54166e-015
lhumerus -24.6754 -10.5815 83.6776
lradius 51.1053
lwrist -14.0717
lhand -21.9467 -30.5028
lfingers 7.12502
lthumb 4.4602 -0.569718
rfemur -13.0689 4.10841 12.5099
rtibia 41.8119
rfoot -34.3161 -12.0289
rtoes 23.3512
lfemur -12.4107 2.80773 -11.1945
ltibia 37.7323
lfoot -27.6606 16.6763
ltoes -30.6778
13
root 12.4209 16.1204 1.46644 -159.811 -88.6179 158.688
lowerback -9.31161 1.22815 0.849195
upperback 3.42506 1.72572 -2.5699
thorax 8.99286 0.960123 -2.92615
lowerneck -1.57845 -0.994747 3.47815
upperneck 20.3521 -2.78762 2.79164
head 6.44601 -1.13116 0.113498
rclavicle 1.63997e-015 2.70347e-014
rhumerus -27.121 5.19641 -90.5527
rradius 51.5757
rwrist 21.1933
rhand -26.5414 -33.8662
rfingers 7.12502
rthumb 0.0228512 -63.8459
lclavicle 1.63997e-015 2.70347e-014
lhumerus -24.6597 -10.5648 83.6762
lradius 51.1009
lwrist -14.0364
lhand -21.9477 -30.5063
lfingers 7.12502
lthumb 4.45931 -0.57321
rfemur -13.0942 4.04727 12.5333
rtibia 41.7995
rfoot -34.147 -12.2142
rtoes 22.4291
lfemur -12.4374 2.81807 -11.1765
ltibia 37.7738
lfoot -27.6608 16.6726
ltoes -30.6852
